<svg xmlns="http://www.w3.org/2000/svg" xmlns:xlink="http://www.w3.org/1999/xlink" viewBox="0 0 92.29 92.29"><defs><style>.cls-1{fill:#333;}.cls-2{fill:#ccc;}.cls-3{fill:url(#Безымянный_градиент_11);}.cls-4{fill:url(#Безымянный_градиент_11-2);}.cls-5{fill:url(#Безымянный_градиент_11-3);}.cls-6{fill:url(#Безымянный_градиент_11-4);}.cls-7{fill:url(#Безымянный_градиент_11-5);}.cls-8{fill:url(#Безымянный_градиент_11-6);}.cls-9{fill:url(#Безымянный_градиент_11-7);}.cls-10{fill:url(#Безымянный_градиент_11-8);}.cls-11{fill:url(#Безымянный_градиент_11-9);}.cls-12{fill:url(#Безымянный_градиент_11-10);}.cls-13{fill:url(#Безымянный_градиент_11-11);}.cls-14{fill:url(#Безымянный_градиент_12);}</style><linearGradient id="Безымянный_градиент_11" x1="7.76" y1="84.33" x2="83.32" y2="5.41" gradientUnits="userSpaceOnUse"><stop offset="0" stop-color="#1c92b7"/><stop offset="1" stop-color="#50b2d8"/></linearGradient><linearGradient id="Безымянный_градиент_11-2" x1="81.83" y1="12.42" x2="10.63" y2="81.45" xlink:href="#Безымянный_градиент_11"/><linearGradient id="Безымянный_градиент_11-3" x1="15.93" y1="56.54" x2="-0.99" y2="75.53" xlink:href="#Безымянный_градиент_11"/><linearGradient id="Безымянный_градиент_11-4" x1="9.33" y1="85.83" x2="84.89" y2="6.91" xlink:href="#Безымянный_градиент_11"/><linearGradient id="Безымянный_градиент_11-5" x1="81.01" y1="11.57" x2="9.8" y2="80.6" xlink:href="#Безымянный_градиент_11"/><linearGradient id="Безымянный_градиент_11-6" x1="52.49" y1="7.96" x2="67.62" y2="21.21" xlink:href="#Безымянный_градиент_11"/><linearGradient id="Безымянный_градиент_11-7" x1="9.77" y1="8.51" x2="60.15" y2="82.1" xlink:href="#Безымянный_градиент_11"/><linearGradient id="Безымянный_градиент_11-8" x1="83.85" y1="59.38" x2="24.71" y2="24.97" xlink:href="#Безымянный_градиент_11"/><linearGradient id="Безымянный_градиент_11-9" x1="19.9" y1="21.41" x2="4.97" y2="21.5" xlink:href="#Безымянный_градиент_11"/><linearGradient id="Безымянный_градиент_11-10" x1="51.28" y1="73.27" x2="126.58" y2="76.83" xlink:href="#Безымянный_градиент_11"/><linearGradient id="Безымянный_градиент_11-11" x1="73.57" y1="77.04" x2="14.43" y2="42.63" xlink:href="#Безымянный_градиент_11"/><linearGradient id="Безымянный_градиент_12" x1="92.07" y1="86.32" x2="62" y2="71.88" gradientUnits="userSpaceOnUse"><stop offset="0" stop-color="#1c92b7"/><stop offset="0.26" stop-color="#50b2d8"/></linearGradient></defs><title>prefer</title><g id="Слой_2" data-name="Слой 2"><g id="Слой_1-2" data-name="Слой 1"><path class="cls-1" d="M92.29,45.91A46.17,46.17,0,0,1,37,91.38,3.46,3.46,0,0,1,34.25,88,3.27,3.27,0,0,0,31,84.72H21.8A3.24,3.24,0,0,1,20,84.15,46.4,46.4,0,0,1,7.84,71.88a3.71,3.71,0,0,1-.63-2.07V59.89a4,4,0,0,0-4-4,2.62,2.62,0,0,1-2.58-2.2,46.15,46.15,0,1,1,91.67-7.77Z"/><path class="cls-2" d="M38.43,9.45c.12-.38.23-.74.31-1A35.19,35.19,0,0,1,43,.11C44.05,0,45.09,0,46.14,0h1a31.9,31.9,0,0,0-5.34,9.51c-.07.2-.18.54-.29.9a1.64,1.64,0,1,1-3.12-1ZM92.28,45.17a32.09,32.09,0,0,1-47.6-8.24l1.58-.86a.72.72,0,0,0-.05-1.29l-5.1-2.29a.72.72,0,0,0-1,.55l-.82,5.53a.72.72,0,0,0,1.06.74l1.47-.8A35.32,35.32,0,0,0,92.18,49.29c.07-1,.11-2.09.11-3.14C92.29,45.82,92.28,45.49,92.28,45.17Zm-43,39.33a1.64,1.64,0,0,0-2,1.06c-.12.36-.23.69-.3.9a32,32,0,0,1-2.8,5.79c.67,0,1.34,0,2,0s1.18,0,1.76,0A35.47,35.47,0,0,0,50,87.52c.08-.22.2-.57.32-1A1.64,1.64,0,0,0,49.26,84.5ZM48.89,63l.87-5.52a.72.72,0,0,0-1.05-.75l-1.47.79A35.32,35.32,0,0,0,0,44.36c0,.59,0,1.19,0,1.78s0,1.3,0,1.95A32.1,32.1,0,0,1,44.35,59l-1.58.85a.72.72,0,0,0,0,1.29l5.08,2.34A.72.72,0,0,0,48.89,63ZM50,65.88a1.58,1.58,0,1,0,1.05,2A1.58,1.58,0,0,0,50,65.88Zm-.74,6.19a1.58,1.58,0,1,0,2-.92A1.58,1.58,0,0,0,49.28,72.07Zm2.16,3.48a1.58,1.58,0,1,0,.92,2A1.58,1.58,0,0,0,51.44,75.55Zm-.5,4.6a1.58,1.58,0,1,0,.92,2A1.58,1.58,0,0,0,50.93,80.15Zm-12-50a1.58,1.58,0,1,0-1.07-2A1.58,1.58,0,0,0,38.95,30.13Zm.68-6.2a1.58,1.58,0,1,0-2,.94A1.58,1.58,0,0,0,39.63,23.93Zm-2.19-3.46a1.58,1.58,0,1,0-.94-2A1.58,1.58,0,0,0,37.44,20.47Zm.46-4.6a1.58,1.58,0,1,0-.94-2A1.58,1.58,0,0,0,37.9,15.86Z"/><path class="cls-3" d="M37.27,91.43A45.89,45.89,0,0,1,19.78,84,9.06,9.06,0,1,0,8.26,72.49a45.89,45.89,0,0,1-7.67-19,3.94,3.94,0,0,1,1.57.74l1.34,1a24.35,24.35,0,0,1,3.79-2l-.16-1.59a4,4,0,0,1,7.6-1.89l.64,1.56a24,24,0,0,1,4.31.13L20.32,50a4,4,0,0,1,7.53,2.16l-.23,1.68a24,24,0,0,1,3.67,2.26l1.29-.93A4,4,0,0,1,38,60.78l-1,1.34a24.32,24.32,0,0,1,2,3.79l1.59-.16a4,4,0,0,1,1.89,7.6L41,74a24,24,0,0,1-.13,4.31l1.46.65a4,4,0,0,1-2.16,7.53l-1.68-.23a24.08,24.08,0,0,1-2.26,3.67l.93,1.29Z"/><path class="cls-4" d="M25.5,78.07A9.06,9.06,0,0,0,8.26,72.49a46.11,46.11,0,0,1-4-6.89A15.93,15.93,0,1,1,26.66,88a46,46,0,0,1-6.88-4A9,9,0,0,0,25.5,78.07Z"/><path class="cls-5" d="M7,70.59a46.15,46.15,0,0,1-2.72-5,16,16,0,0,1,12.34-6.09A15.9,15.9,0,0,0,7.24,69.72C7.16,70,7.08,70.3,7,70.59Z"/><path class="cls-6" d="M51.4.3a4,4,0,0,0,.21,4.38L52.55,6a24,24,0,0,0-2.22,3.69l-1.68-.22A4,4,0,0,0,46.56,17l1.46.64a23.93,23.93,0,0,0-.09,4.31l-1.56.65a4,4,0,0,0,2,7.59L49.93,30A24.23,24.23,0,0,0,52,33.77l-1,1.35a4,4,0,0,0,5.49,5.59l1.28-.95A24,24,0,0,0,61.45,42l-.22,1.68a4,4,0,0,0,7.55,2.09l.64-1.46a24,24,0,0,0,4.31.09l.65,1.56A4,4,0,0,0,82,44l-.18-1.59a24.34,24.34,0,0,0,3.77-2.08l1.35,1a4,4,0,0,0,5.1-.25A46.16,46.16,0,0,0,51.4.3ZM80.75,22.8A9.06,9.06,0,1,1,74.6,11.55,9.06,9.06,0,0,1,80.75,22.8Z"/><path class="cls-7" d="M67.21,5.08a15.93,15.93,0,1,0,20,20A46.34,46.34,0,0,0,67.21,5.08Zm11.4,17.09A6.83,6.83,0,1,1,74,13.7,6.83,6.83,0,0,1,78.61,22.17Z"/><path class="cls-8" d="M74,36.06a15.93,15.93,0,0,1-6.84-31q.86.44,1.7.92A15.93,15.93,0,0,0,74,36.06Z"/><path class="cls-9" d="M31.48,21.42a12.69,12.69,0,0,0-.2-2.29l.79-.43a2.11,2.11,0,0,0-1.48-3.9l-.83.19a12.91,12.91,0,0,0-1.32-1.88l.47-.77a2.11,2.11,0,0,0-3.23-2.64l-.62.57A12.77,12.77,0,0,0,23,9.3l0-.9a2.11,2.11,0,0,0-4.12-.67l-.25.81a12.75,12.75,0,0,0-2.29.2L15.89,8A2.11,2.11,0,0,0,12,9.43l.19.83a12.94,12.94,0,0,0-1.88,1.32l-.77-.47a2.11,2.11,0,0,0-2.64,3.23l.57.63a12.76,12.76,0,0,0-1,2.08l-.9,0a2.11,2.11,0,0,0-.67,4.12l.81.25a12.75,12.75,0,0,0,.2,2.29l-.79.43A2.11,2.11,0,0,0,6.62,28l.83-.19a12.91,12.91,0,0,0,1.32,1.88l-.47.77a2.11,2.11,0,0,0,3.23,2.64l.63-.57a12.79,12.79,0,0,0,2.08,1l0,.9a2.11,2.11,0,0,0,4.12.67l.25-.81a12.76,12.76,0,0,0,2.29-.2l.43.79a2.11,2.11,0,0,0,3.9-1.48L25,32.56a13,13,0,0,0,1.88-1.32l.77.47a2.11,2.11,0,0,0,2.64-3.23l-.57-.62a12.77,12.77,0,0,0,1-2.08l.9,0a2.11,2.11,0,0,0,.67-4.12Zm-8.12.84a4.83,4.83,0,1,1-3.91-5.6A4.83,4.83,0,0,1,23.35,22.26Z"/><path class="cls-10" d="M20.18,12.57A9,9,0,1,0,27.45,23,9,9,0,0,0,20.18,12.57Zm4.49,9.92a6.15,6.15,0,1,1-5-7.14A6.15,6.15,0,0,1,24.66,22.49Z"/><path class="cls-11" d="M20,30.28a9,9,0,1,1,0-17.74,9,9,0,0,0-7.42,7.29,9.15,9.15,0,0,0-.14,1.41c0,.11,0,.23,0,.34a9,9,0,0,0,7.41,8.66Z"/><path class="cls-12" d="M81.52,75.77a6.26,6.26,0,1,0-9,8.26,46,46,0,0,1-9.57,5.11,16.84,16.84,0,0,1-1.26-1.87l-1.08.24a2.73,2.73,0,0,1-1.91-5.06l1-.56a16.57,16.57,0,0,1-.26-3l-1.05-.33a2.73,2.73,0,0,1,.87-5.34l1.17,0a16.69,16.69,0,0,1,1.25-2.7l-.74-.81a2.73,2.73,0,0,1,3.43-4.19l1,.61a16.84,16.84,0,0,1,2.43-1.71l-.24-1.08a2.73,2.73,0,0,1,5.06-1.91l.56,1a16.57,16.57,0,0,1,3-.26l.33-1.05a2.73,2.73,0,0,1,5.34.87l0,1.17a16.6,16.6,0,0,1,2.7,1.25l.81-.74a2.73,2.73,0,0,1,3.57-.11A46.12,46.12,0,0,1,81.52,75.77Z"/><path class="cls-13" d="M84.39,72a46.5,46.5,0,0,1-2.87,3.81,6.26,6.26,0,1,0-9,8.26,46.24,46.24,0,0,1-4,2.47A10.81,10.81,0,1,1,84.39,72Z"/><path class="cls-14" d="M70.49,85.34q-1,.6-2,1.16a10.81,10.81,0,0,1,8.71-18.79,10.81,10.81,0,0,0-6.75,17.63Z"/></g></g></svg>