<svg xmlns="http://www.w3.org/2000/svg" xmlns:xlink="http://www.w3.org/1999/xlink" viewBox="0 0 92.01 92.01"><defs><style>.cls-1{fill:#333;}.cls-2{fill:#4c4c4c;}.cls-3{fill:url(#Безымянный_градиент_11);}.cls-4{fill:url(#Безымянный_градиент_11-2);}.cls-5{fill:#ccc;}.cls-6{fill:url(#Безымянный_градиент_11-3);}.cls-7{fill:#fff;}</style><linearGradient id="Безымянный_градиент_11" x1="49.36" y1="8.36" x2="14.02" y2="45.02" gradientUnits="userSpaceOnUse"><stop offset="0" stop-color="#1c92b7"/><stop offset="1" stop-color="#50b2d8"/></linearGradient><linearGradient id="Безымянный_градиент_11-2" x1="2.34" y1="46.54" x2="56.15" y2="47.03" xlink:href="#Безымянный_градиент_11"/><linearGradient id="Безымянный_градиент_11-3" x1="2.54" y1="25.2" x2="56.34" y2="25.69" xlink:href="#Безымянный_градиент_11"/></defs><title>chat</title><g id="Слой_2" data-name="Слой 2"><g id="Слой_1-2" data-name="Слой 1"><path class="cls-1" d="M92,46A46,46,0,0,1,0,46q0-1.36.08-2.71A46,46,0,0,1,92,46Z"/><path class="cls-2" d="M37.21,34.55V70.3H49.49l17.32,9.9-4.17-9.9H79.72a45.65,45.65,0,0,0,5.06-11.25V34.55Z"/><path class="cls-3" d="M46.63,7.54V43.3H34.36L17,53.2l4.17-9.9H.08A46,46,0,0,1,20.75,7.54Z"/><path class="cls-4" d="M26.1,41.06,21,53.2,43.34,40.43Z"/><path class="cls-5" d="M90.13,34.55V59.05A45.62,45.62,0,0,1,85.08,70.3H42.56V34.55Z"/><path class="cls-5" d="M67,68.07,72.16,80.2,49.81,67.43Z"/><path class="cls-1" d="M76,52.43a2.64,2.64,0,1,1-2.64-2.64A2.64,2.64,0,0,1,76,52.43Z"/><path class="cls-1" d="M69,52.43a2.64,2.64,0,1,1-2.64-2.64A2.64,2.64,0,0,1,69,52.43Z"/><path class="cls-1" d="M62,52.43a2.64,2.64,0,1,1-2.64-2.64A2.64,2.64,0,0,1,62,52.43Z"/><path class="cls-6" d="M3,7.54H50.59V43.3H3Z"/><path class="cls-7" d="M22.44,25.42a2.64,2.64,0,1,1-2.64-2.64A2.64,2.64,0,0,1,22.44,25.42Z"/><path class="cls-7" d="M29.44,25.42a2.64,2.64,0,1,1-2.64-2.64A2.64,2.64,0,0,1,29.44,25.42Z"/><path class="cls-7" d="M36.44,25.42a2.64,2.64,0,1,1-2.64-2.64A2.64,2.64,0,0,1,36.44,25.42Z"/></g></g></svg>