<svg xmlns="http://www.w3.org/2000/svg" xmlns:xlink="http://www.w3.org/1999/xlink" viewBox="0 0 91.43 91.43"><defs><style>.cls-1{fill:#333;}.cls-2{fill:#ccc;}.cls-3{fill:url(#Безымянный_градиент_11);}.cls-4{fill:url(#Безымянный_градиент_11-2);}.cls-5{fill:url(#Безымянный_градиент_11-3);}.cls-6{fill:#ed1c24;}.cls-7{fill:#f7931e;}.cls-8{fill:#ff0;}.cls-9{fill:url(#Безымянный_градиент_11-4);}.cls-10{fill:url(#Безымянный_градиент_11-5);}.cls-11{fill:url(#Безымянный_градиент_11-6);}.cls-12{fill:url(#Безымянный_градиент_11-7);}.cls-13{fill:#a3a3a3;}</style><linearGradient id="Безымянный_градиент_11" x1="66.46" y1="40.35" x2="20.97" y2="44.9" gradientUnits="userSpaceOnUse"><stop offset="0" stop-color="#1c92b7"/><stop offset="1" stop-color="#50b2d8"/></linearGradient><linearGradient id="Безымянный_градиент_11-2" x1="35.47" y1="53.66" x2="41.89" y2="60.58" xlink:href="#Безымянный_градиент_11"/><linearGradient id="Безымянный_градиент_11-3" x1="67.78" y1="53.5" x2="22.28" y2="58.05" xlink:href="#Безымянный_градиент_11"/><linearGradient id="Безымянный_градиент_11-4" x1="18.8" y1="62.64" x2="38.79" y2="62.64" xlink:href="#Безымянный_градиент_11"/><linearGradient id="Безымянный_градиент_11-5" x1="66.65" y1="42.25" x2="21.16" y2="46.8" xlink:href="#Безымянный_градиент_11"/><linearGradient id="Безымянный_градиент_11-6" x1="68.34" y1="55.61" x2="26.9" y2="18.62" xlink:href="#Безымянный_градиент_11"/><linearGradient id="Безымянный_градиент_11-7" x1="40.93" y1="21.08" x2="69.01" y2="47.98" xlink:href="#Безымянный_градиент_11"/></defs><title>rocket</title><g id="Слой_2" data-name="Слой 2"><g id="Слой_1-2" data-name="Слой 1"><path class="cls-1" d="M78,78a45.72,45.72,0,1,1,0-64.65A45.72,45.72,0,0,1,78,78Z"/><path class="cls-2" d="M72.24,71.71l-5.48.76a.72.72,0,0,1-.81-.81l.76-5.48a.71.71,0,0,1,1.21-.41L69.18,67A31.76,31.76,0,1,0,43.9,77.35l.94,0a1.62,1.62,0,0,1-.06,3.24l-1,0A35,35,0,1,1,71.48,69.33l1.17,1.17A.71.71,0,0,1,72.24,71.71Zm-9.5,1.1a1.56,1.56,0,1,0,1.56,1.56A1.56,1.56,0,0,0,62.74,72.81Zm-4.52,2.64a1.56,1.56,0,1,0,1.46,1.66A1.56,1.56,0,0,0,58.22,75.45Zm-4.14,1.38a1.56,1.56,0,1,0,1.46,1.66A1.56,1.56,0,0,0,54.08,76.84Zm-4.5.84A1.56,1.56,0,1,0,51,79.34,1.56,1.56,0,0,0,49.57,77.68Z"/><path class="cls-3" d="M40.76,35.39,18.63,57.52a1.79,1.79,0,0,1-2.53,0L8.53,49.95a1.79,1.79,0,0,1,0-2.53l12-12A14.29,14.29,0,0,1,40.76,35.39Z"/><path class="cls-4" d="M56,70.87l-12,12a1.79,1.79,0,0,1-2.53,0l-7.58-7.58a1.79,1.79,0,0,1,0-2.53L56,50.67A14.29,14.29,0,0,1,56,70.87ZM25.51,36.62,10.36,51.78l5.75,5.75a1.79,1.79,0,0,0,2.53,0L40.76,35.39a14.25,14.25,0,0,0-4.21-2.92A14.25,14.25,0,0,0,25.51,36.62Z"/><path class="cls-5" d="M16.67,42.94l8.27,8.27-2.53,2.53-8.27-8.27ZM23,36.62l8.27,8.27,2.53-2.53L25.51,34.1ZM58.67,67.26l-9.61-9.61-2.53,2.53L56.62,70.26A14.23,14.23,0,0,0,58.67,67.26Zm-18.45-.77L37.7,69l10.1,10.1,2.53-2.53Z"/><path class="cls-6" d="M11.34,67.71,28.09,51a1,1,0,0,1,1.46,0L40.46,61.89a1,1,0,0,1,0,1.46L23.72,80.09c-3.94,3.94-11.33,6.12-16,3.63C5.23,79,7.41,71.65,11.34,67.71Z"/><path class="cls-7" d="M14.13,68.37,26.22,56.27a.74.74,0,0,1,1.05,0l7.89,7.89a.74.74,0,0,1,0,1.05L23.06,77.31c-2.84,2.84-8.18,4.42-11.56,2.62C9.71,76.55,11.28,71.21,14.13,68.37Z"/><path class="cls-8" d="M17.91,64.58,30,52.49a.74.74,0,0,1,1.05,0l7.89,7.89a.74.74,0,0,1,0,1.05L26.85,73.52C24,76.36,18.67,77.94,15.3,76.14,13.5,72.76,15.07,67.42,17.91,64.58Z"/><path class="cls-9" d="M33.22,72.11,19.33,58.22a1.79,1.79,0,0,1,0-2.53l2.53-2.53a1.79,1.79,0,0,1,2.53,0L38.27,67.06a1.79,1.79,0,0,1,0,2.53l-2.53,2.53A1.79,1.79,0,0,1,33.22,72.11Z"/><path class="cls-10" d="M69.24,43.66l-29,29a1.79,1.79,0,0,1-2.53,0L18.73,53.76a1.79,1.79,0,0,1,0-2.53l29-29c6.83-6.83,19.65-10.61,27.76-6.29C79.85,24,76.07,36.83,69.24,43.66Z"/><path class="cls-11" d="M69.24,43.66l-29,29a1.79,1.79,0,0,1-2.53,0L21.13,56.16,51.43,25.86C57.57,19.72,68.55,16,76.59,18.5,79.05,26.54,75.38,37.52,69.24,43.66Z"/><path class="cls-12" d="M64.16,43.69a11.61,11.61,0,1,1,0-16.42A11.61,11.61,0,0,1,64.16,43.69Z"/><path class="cls-2" d="M61.64,41.16a8,8,0,1,1,0-11.36A8,8,0,0,1,61.64,41.16Z"/><path class="cls-13" d="M61.64,41.16a8,8,0,0,1-8.87,1.69A8,8,0,0,1,63.33,32.29,8,8,0,0,1,61.64,41.16Z"/></g></g></svg>