<svg xmlns="http://www.w3.org/2000/svg" xmlns:xlink="http://www.w3.org/1999/xlink" viewBox="0 0 91.45 95.3"><defs><style>.cls-1{fill:#333;}.cls-2{fill:url(#Безымянный_градиент_11);}.cls-3{fill:url(#Безымянный_градиент_11-2);}.cls-4{fill:#fff;}.cls-5{fill:#d9eafc;}.cls-6{fill:#ccc;}.cls-7{fill:url(#Безымянный_градиент_11-3);}.cls-8{fill:url(#Безымянный_градиент_11-4);}.cls-9{fill:url(#Безымянный_градиент_11-5);}.cls-10{fill:url(#Безымянный_градиент_11-6);}.cls-11{fill:#4c4c4c;}.cls-12{fill:url(#Безымянный_градиент_11-7);}.cls-13{fill:url(#Безымянный_градиент_11-8);}</style><linearGradient id="Безымянный_градиент_11" x1="8.35" y1="49.7" x2="82.86" y2="49.7" gradientUnits="userSpaceOnUse"><stop offset="0" stop-color="#1c92b7"/><stop offset="1" stop-color="#50b2d8"/></linearGradient><linearGradient id="Безымянный_градиент_11-2" x1="52.61" y1="41.06" x2="44.43" y2="46.86" xlink:href="#Безымянный_градиент_11"/><linearGradient id="Безымянный_градиент_11-3" x1="40.22" y1="39.13" x2="62.88" y2="39.13" xlink:href="#Безымянный_градиент_11"/><linearGradient id="Безымянный_градиент_11-4" x1="27.84" y1="55.42" x2="51.92" y2="55.42" xlink:href="#Безымянный_градиент_11"/><linearGradient id="Безымянный_градиент_11-5" x1="41.55" y1="61.91" x2="49.66" y2="61.91" xlink:href="#Безымянный_градиент_11"/><linearGradient id="Безымянный_градиент_11-6" x1="40.48" y1="62.12" x2="44.81" y2="61.84" xlink:href="#Безымянный_градиент_11"/><linearGradient id="Безымянный_градиент_11-7" x1="63.36" y1="17.88" x2="83.5" y2="17.88" xlink:href="#Безымянный_градиент_11"/><linearGradient id="Безымянный_градиент_11-8" x1="68.37" y1="17.88" x2="78.49" y2="17.88" xlink:href="#Безымянный_градиент_11"/></defs><title>time</title><g id="Слой_2" data-name="Слой 2"><g id="Слой_1-2" data-name="Слой 1"><circle class="cls-1" cx="45.6" cy="49.7" r="45.6"/><path class="cls-2" d="M76.7,31.88v2.95a.56.56,0,0,1-.56.56H70.73a.56.56,0,0,1-.56-.56V31.88A1.77,1.77,0,0,0,69,30.3l-1.37-.56a1.61,1.61,0,0,0-.69-.15,1.76,1.76,0,0,0-1.22.47l-2.11,2.09a.57.57,0,0,1-.8,0L59,28.37a.55.55,0,0,1,0-.78l2.11-2.09a1.75,1.75,0,0,0,.33-1.91l-.56-1.35a1.78,1.78,0,0,0-1.58-1.12h-3a.56.56,0,0,1-.56-.56V15.2a.56.56,0,0,1,.56-.56h1.89A37.25,37.25,0,1,0,77.51,30.46,1.78,1.78,0,0,0,76.7,31.88Z"/><path class="cls-3" d="M11.52,49.7A37.25,37.25,0,0,1,47.19,12.48c-.53,0-1.05,0-1.58,0a37.25,37.25,0,0,0,0,74.5c.53,0,1.06,0,1.58,0A37.25,37.25,0,0,1,11.52,49.7Z"/><circle class="cls-4" cx="45.6" cy="49.7" r="29.81"/><circle class="cls-5" cx="45.6" cy="49.7" r="19.85"/><path class="cls-6" d="M45.6,70.94A21.25,21.25,0,1,1,66.85,49.7,21.27,21.27,0,0,1,45.6,70.94Zm0-39.7A18.45,18.45,0,1,0,64.06,49.7,18.48,18.48,0,0,0,45.6,31.24Z"/><circle class="cls-4" cx="45.6" cy="49.7" r="3.99"/><path class="cls-7" d="M61.48,48.3H50.81A5.41,5.41,0,0,0,47,44.5V24.57a1.4,1.4,0,1,0-2.79,0V44.5a5.39,5.39,0,1,0,6.6,6.6H61.48a1.4,1.4,0,0,0,0-2.79Zm-15.88,4a2.6,2.6,0,1,1,2.6-2.6A2.6,2.6,0,0,1,45.6,52.29Z"/><path class="cls-8" d="M29.23,67.47a1.4,1.4,0,0,1-1-2.38l21.3-21.3a1.4,1.4,0,0,1,2,2l-21.3,21.3A1.39,1.39,0,0,1,29.23,67.47Z"/><path class="cls-6" d="M70.73,35.39a.56.56,0,0,1-.56-.56V31.88A1.77,1.77,0,0,0,69,30.3l-1.37-.56a1.61,1.61,0,0,0-.69-.15,1.82,1.82,0,0,0-1,.31,28.61,28.61,0,0,1,3.51,4.4l-.43.25A1.4,1.4,0,1,0,70.44,37l.43-.25A28.21,28.21,0,0,1,74,48.3h-.51a1.4,1.4,0,0,0,0,2.79H74a28.21,28.21,0,0,1-3.11,11.58l-.43-.25A1.4,1.4,0,0,0,69,64.84l.43.25A28.64,28.64,0,0,1,61,73.57l-.25-.43a1.4,1.4,0,1,0-2.42,1.4l.25.43A28.21,28.21,0,0,1,47,78.08v-.51a1.4,1.4,0,0,0-2.79,0v.51A28.21,28.21,0,0,1,32.63,75l.25-.43a1.4,1.4,0,1,0-2.42-1.4l-.25.43a28.64,28.64,0,0,1-8.48-8.48l.43-.25a1.4,1.4,0,0,0-1.4-2.42l-.43.25a28.21,28.21,0,0,1-3.11-11.58h.51a1.4,1.4,0,1,0,0-2.79h-.51a28.21,28.21,0,0,1,3.11-11.58l.43.25a1.4,1.4,0,0,0,1.4-2.42l-.43-.25a28.64,28.64,0,0,1,8.48-8.48l.25.43a1.4,1.4,0,1,0,2.42-1.4l-.25-.43a28.38,28.38,0,0,1,26,0l-.25.43A1.4,1.4,0,0,0,59.54,27h.14l1.47-1.46a1.75,1.75,0,0,0,.33-1.91l-.41-1a31.12,31.12,0,0,0-2.95-1.49H56.34a.56.56,0,0,1-.56-.56V20.2A31.23,31.23,0,1,0,73.33,35.39Z"/><path class="cls-9" d="M48.73,59.69H42.48a.93.93,0,0,0-.93.93v2.56a.93.93,0,0,0,.93.93h6.25a.93.93,0,0,0,.93-.93V60.62A.93.93,0,0,0,48.73,59.69Z"/><path class="cls-10" d="M44.19,63.19V60.63a.93.93,0,0,1,.93-.93H42.48a.93.93,0,0,0-.93.93v2.56a.93.93,0,0,0,.93.93h2.64A.93.93,0,0,1,44.19,63.19Z"/><path class="cls-11" d="M69.8,34.83a.93.93,0,0,0,.93.93h5.41a.93.93,0,0,0,.93-.93V31.88a1.4,1.4,0,0,1,.88-1.23l1.39-.57a1.41,1.41,0,0,1,1.5.25l2.11,2.09a.94.94,0,0,0,1.32,0l3.82-3.79a.92.92,0,0,0,0-1.31L86,25.23a1.38,1.38,0,0,1-.25-1.49l.57-1.37a1.4,1.4,0,0,1,1.24-.88h3a.93.93,0,0,0,.93-.93V15.2a.93.93,0,0,0-.93-.93h-3a1.4,1.4,0,0,1-1.24-.88L85.73,12A1.38,1.38,0,0,1,86,10.54l2.11-2.09a.92.92,0,0,0,0-1.31L84.26,3.34a.94.94,0,0,0-1.32,0L80.83,5.43a1.41,1.41,0,0,1-1.5.25l-1.39-.57a1.4,1.4,0,0,1-.88-1.23V.93A.93.93,0,0,0,76.14,0H70.73a.93.93,0,0,0-.93.93V3.88a1.4,1.4,0,0,1-.88,1.23l-1.39.57A1.41,1.41,0,0,1,66,5.43L63.92,3.34a.94.94,0,0,0-1.32,0L58.78,7.13a.92.92,0,0,0,0,1.31l2.11,2.09A1.38,1.38,0,0,1,61.14,12l-.57,1.37a1.4,1.4,0,0,1-1.24.88h-3a.93.93,0,0,0-.93.93v5.36a.93.93,0,0,0,.93.93h3a1.4,1.4,0,0,1,1.24.88l.57,1.37a1.38,1.38,0,0,1-.25,1.49l-2.11,2.09a.92.92,0,0,0,0,1.31l3.82,3.79a.94.94,0,0,0,1.32,0L66,30.33a1.41,1.41,0,0,1,1.5-.25l1.39.57a1.4,1.4,0,0,1,.88,1.23v2.95Z"/><ellipse class="cls-4" cx="73.43" cy="17.88" rx="8.67" ry="8.61"/><path class="cls-12" d="M73.43,27.88a10,10,0,1,1,10.07-10A10,10,0,0,1,73.43,27.88Zm0-17.21a7.21,7.21,0,1,0,7.28,7.21A7.25,7.25,0,0,0,73.43,10.67Z"/><ellipse class="cls-4" cx="73.43" cy="17.88" rx="3.67" ry="3.64"/><path class="cls-13" d="M73.43,22.92a5,5,0,1,1,5.06-5A5.05,5.05,0,0,1,73.43,22.92Zm0-7.28a2.24,2.24,0,1,0,2.27,2.24A2.26,2.26,0,0,0,73.43,15.64Z"/></g></g></svg>