<svg xmlns="http://www.w3.org/2000/svg" viewBox="0 0 64.66 65.19"><defs><style>.cls-1{fill:#fff;}.cls-2{fill:#00e676;}</style></defs><title>whatsapp_hover</title><g id="Слой_2" data-name="Слой 2"><g id="Слой_1-2" data-name="Слой 1"><path class="cls-1" d="M17.09,56l1.06.53a27.51,27.51,0,0,0,14.27,3.88h0a28.15,28.15,0,0,0,19.9-48.1A28,28,0,0,0,4.4,32.42a29,29,0,0,0,4.23,14.8l.71,1.05L6.52,58.67Z"/><path class="cls-2" d="M55.32,9.51A31.74,31.74,0,0,0,32.59,0,32.18,32.18,0,0,0,.35,32.42a34.06,34.06,0,0,0,4.23,16L0,65.19l17.09-4.41a31.5,31.5,0,0,0,15.33,3.88h0A32.41,32.41,0,0,0,64.66,32.24,32,32,0,0,0,55.32,9.51ZM32.59,59.2h0A26.23,26.23,0,0,1,19,55.5L18,55,7.75,57.61l2.64-10-.7-1.06a26.74,26.74,0,1,1,36.82,8.63A25.61,25.61,0,0,1,32.59,59.2ZM48.1,39.64l-1.94-.88s-2.82-1.23-4.58-2.12c-.18,0-.35-.17-.53-.17a2.48,2.48,0,0,0-1.23.35h0s-.18.18-2.65,3a1,1,0,0,1-.88.52h-.17a1.32,1.32,0,0,1-.71-.35l-.88-.35h0a17.09,17.09,0,0,1-5.11-3.35c-.35-.35-.88-.7-1.23-1A20.08,20.08,0,0,1,24.84,31l-.18-.36c-.17-.17-.17-.35-.35-.7a1.3,1.3,0,0,1,.18-.88s.7-.88,1.23-1.41c.35-.35.53-.88.88-1.23A2.19,2.19,0,0,0,27,24.66,72.17,72.17,0,0,0,24.14,18a2.08,2.08,0,0,0-1.24-.88H21c-.36,0-.71.18-1.06.18l-.18.17c-.35.18-.7.53-1.06.71-.35.35-.52.7-.88,1.05a9,9,0,0,0-1.93,5.46h0a10.49,10.49,0,0,0,.88,4.06l.17.53a29.44,29.44,0,0,0,6.52,9l.71.71a11.67,11.67,0,0,1,1.41,1.4A31.31,31.31,0,0,0,38.23,47c.53.18,1.23.18,1.76.35h1.76a6.58,6.58,0,0,0,2.65-.7c.53-.36.88-.36,1.23-.71l.35-.35c.35-.35.71-.53,1.06-.88a4.84,4.84,0,0,0,.88-1.06,10.27,10.27,0,0,0,.71-2.46V40A2.49,2.49,0,0,0,48.1,39.64Z"/></g></g></svg>