<svg xmlns="http://www.w3.org/2000/svg" viewBox="0 0 64.66 65.19"><defs><style>.cls-1{fill:#00e676;}.cls-2{fill:#fff;}</style></defs><title>whatsapp</title><g id="Слой_2" data-name="Слой 2"><g id="Слой_1-2" data-name="Слой 1"><path class="cls-1" d="M17.09,56l1.06.53a27.61,27.61,0,0,0,14.27,3.88h0a28.15,28.15,0,0,0,19.91-48.1A28,28,0,0,0,4.4,32.42a28.89,28.89,0,0,0,4.23,14.8l.7,1.06L6.52,58.67Z"/><path class="cls-2" d="M55.32,9.51A31.72,31.72,0,0,0,32.59,0,32.18,32.18,0,0,0,.35,32.42a34,34,0,0,0,4.23,16L0,65.19l17.09-4.4a31.46,31.46,0,0,0,15.33,3.88h0A32.41,32.41,0,0,0,64.66,32.24,32,32,0,0,0,55.32,9.51ZM32.59,59.2h0A26.17,26.17,0,0,1,19,55.5L18,55,7.75,57.61l2.64-10-.7-1.06a26.74,26.74,0,1,1,36.82,8.63A25.68,25.68,0,0,1,32.59,59.2ZM48.1,39.64l-1.94-.88s-2.82-1.23-4.58-2.11c-.18,0-.35-.18-.53-.18a2.55,2.55,0,0,0-1.23.35h0s-.18.18-2.64,3a1,1,0,0,1-.88.53h-.18a1.34,1.34,0,0,1-.7-.35l-.88-.35h0a17.13,17.13,0,0,1-5.11-3.35c-.35-.35-.88-.7-1.23-1.06A19.68,19.68,0,0,1,24.84,31l-.18-.35c-.18-.18-.18-.35-.35-.7a1.32,1.32,0,0,1,.18-.88s.7-.88,1.23-1.41c.35-.35.53-.88.88-1.23A2.17,2.17,0,0,0,27,24.66,68.59,68.59,0,0,0,24.14,18a2,2,0,0,0-1.23-.88H21c-.35,0-.7.18-1.06.18l-.18.18c-.35.18-.7.53-1.06.7-.35.35-.53.7-.88,1.06a9,9,0,0,0-1.94,5.46h0a10.45,10.45,0,0,0,.88,4.05l.18.53a29.35,29.35,0,0,0,6.52,9l.7.7a10.63,10.63,0,0,1,1.41,1.41A31.48,31.48,0,0,0,38.23,47c.53.18,1.23.18,1.76.35h1.76a6.53,6.53,0,0,0,2.64-.7c.53-.35.88-.35,1.23-.7l.35-.35c.35-.35.7-.53,1.06-.88a4.67,4.67,0,0,0,.88-1.06,10.1,10.1,0,0,0,.7-2.47V40A2.18,2.18,0,0,0,48.1,39.64Z"/></g></g></svg>